<?xml version="1.0" encoding="utf-8"?>
<!-- Generator: Adobe Illustrator 19.1.0, SVG Export Plug-In . SVG Version: 6.00 Build 0)  -->
<svg version="1.1" id="Layer_1" xmlns="http://www.w3.org/2000/svg" xmlns:xlink="http://www.w3.org/1999/xlink" x="0px" y="0px"
	 viewBox="-682 1024 114 107" style="enable-background:new -682 1024 114 107;" xml:space="preserve">
<style type="text/css">
	.st0{enable-background:new    ;}
	.st1{fill:#37BB9B;}
</style>
<g id="Page-1">
	<g id="Home-new" transform="translate(-234.000000, -489.000000)">
		<g id="create" transform="translate(226.000000, 483.000000)">
			<g class="st0">
				<path class="st1" d="M-664.8,1053.3c-0.5-0.3-0.8-0.8-1.1-1.3s-0.5-1.1-0.7-1.6s-0.3-1.2-0.3-1.8s-0.1-1.2-0.1-1.8
					c0.1-0.4,0.3-0.8,0.5-1.2s0.4-0.7,0.7-1s0.5-0.6,0.8-0.9s0.5-0.6,0.8-0.9c0.1,0,0.2,0,0.3,0.1c0.1-0.2,0.2-0.3,0.3-0.4
					s0.3-0.2,0.4-0.3s0.3-0.2,0.4-0.3s0.3-0.2,0.4-0.4c0.4-0.1,0.7-0.2,1-0.4s0.6-0.4,0.9-0.6s0.6-0.4,0.9-0.6s0.6-0.3,1-0.4
					c0.1-0.2,0.3-0.3,0.5-0.4s0.4-0.2,0.6-0.3s0.4-0.2,0.6-0.3s0.4-0.3,0.5-0.4c0.1,0.1,0.2,0.2,0.4,0.1s0.3-0.1,0.5-0.1
					c0.1,0,0.2,0,0.2,0s0.1,0.1,0.2,0.2s0.1,0.1,0.1,0.1s0.1,0,0.1-0.1c0.1,0,0.2,0.1,0.1,0.2s-0.1,0.2-0.1,0.2c0.2,0,0.3,0,0.4,0.1
					s0.3,0.1,0.5,0.2c0.1,0.1,0.1,0.1,0.1,0.2s-0.1,0.1-0.1,0.2c0.6,0.2,0.9,0.4,1.1,0.8s0.2,0.8,0,1.1s-0.4,0.8-0.7,1.1
					s-0.7,0.6-1.1,0.7c-0.5,0.1-0.9,0.2-1.3,0.4s-0.8,0.3-1.2,0.4s-0.7,0.3-1.1,0.6s-0.6,0.5-0.9,0.7c-0.4,0.1-0.8,0.3-1.2,0.5
					s-0.7,0.5-1,0.7s-0.6,0.5-0.9,0.8s-0.6,0.6-0.8,0.9c0,0.3,0,0.5-0.1,0.6s-0.2,0.3-0.3,0.4c0,0.3,0.1,0.6,0.2,0.8
					s0.2,0.4,0.3,0.6c1.2,0.4,2.6,0.6,4,0.7s2.8,0.1,4.2,0.2c0.1,0.2,0.3,0.4,0.5,0.5s0.3,0.3,0.5,0.5s0.3,0.4,0.4,0.6
					s0.1,0.5,0.1,0.8c-0.3,0.3-0.6,0.5-0.9,0.8s-0.6,0.5-0.9,0.7c-0.1,0-0.3,0-0.5,0s-0.4,0-0.6,0s-0.4,0-0.6,0s-0.4,0.1-0.6,0.2
					c-1,0-2-0.2-3-0.4s-2-0.5-2.9-0.8c-0.2-0.2-0.4-0.4-0.5-0.6S-664.5,1053.4-664.8,1053.3z"/>
				<path class="st1" d="M-648.6,1052.9c-0.2,0.6-0.3,1.1-0.5,1.4s-0.3,0.7-0.6,1c-0.2,0-0.3,0-0.4,0.1s-0.2,0.1-0.3,0.2
					c-0.1,0-0.2,0-0.3,0s-0.1-0.1-0.2-0.1s-0.1-0.1-0.2-0.1s-0.2-0.1-0.3-0.1c0-0.1-0.1-0.2-0.1-0.4s-0.1-0.1-0.3-0.1
					c0-0.1,0-0.2,0-0.3s0-0.2-0.1-0.2s0-0.1-0.1-0.2s0-0.2,0-0.3c-0.1,0-0.1-0.1-0.2-0.2s-0.1-0.2-0.2-0.3c0-0.3,0.1-0.5,0.1-0.8
					s0.1-0.5,0.2-0.7s0.1-0.4,0.2-0.7s0-0.4-0.1-0.7c0.1,0,0.1,0,0.1,0s0.1-0.2,0.1-0.3s0-0.2,0-0.4s0-0.2,0-0.3
					c0.2-0.4,0.3-0.8,0.4-1.3s0.2-0.9,0.3-1.3s0.2-0.8,0.3-1.2s0.2-0.8,0.4-1.1c0.2,0,0.4,0,0.6,0.1s0.3,0.2,0.4,0.3
					c0.4-0.3,0.8-0.7,1.1-1.1s0.6-0.9,1-1.3s0.7-0.8,1.1-1.1s0.9-0.5,1.5-0.6c0.3,0.2,0.7,0.5,1,0.7s0.7,0.6,0.9,0.9
					c0.1,0.1,0.2,0.1,0.3,0.2s0.2,0.1,0.3,0.2v0.3c0.2,0.2,0.3,0.4,0.5,0.6s0.2,0.5,0.3,0.7s0.2,0.5,0.3,0.8s0.2,0.5,0.3,0.7
					c0,0.1,0,0.1,0,0.2s0,0.1,0,0.2s0,0.1,0.1,0.2s0,0.1,0,0.3c0,0.7-0.3,1.2-0.7,1.7s-0.9,0.8-1.4,1s-1.2,0.5-1.8,0.7
					s-1.2,0.4-1.7,0.6c0,0.1,0,0.1,0.1,0.1s0.1,0,0.1,0.1c0.4,0.2,0.7,0.4,0.9,0.6s0.4,0.3,0.6,0.4s0.4,0.2,0.6,0.2s0.5,0.2,0.9,0.2
					s0.7,0.2,0.9,0.2s0.4,0.1,0.6,0.1s0.4,0.1,0.6,0.1s0.5,0.1,0.8,0.1c0.1,0.1,0.3,0.3,0.4,0.5s0.2,0.4,0.2,0.6s0,0.4,0,0.6
					s-0.1,0.3-0.2,0.4c0,0,0.1,0.1,0.1,0.1s0.1,0,0.2,0c-0.1,0.1-0.2,0.1-0.2,0.2s-0.1,0.2-0.2,0.3s-0.1,0.2-0.2,0.2
					s-0.2,0.1-0.3,0.1c-0.5,0.2-1.1,0.2-1.8,0s-1.7-0.5-2.8-0.9c-0.6-0.2-1-0.4-1.4-0.6s-0.7-0.3-0.9-0.5s-0.5-0.3-0.7-0.5
					S-648.3,1053.2-648.6,1052.9z M-645.2,1044.9c-0.2,0.2-0.4,0.5-0.6,0.7s-0.4,0.4-0.6,0.6s-0.4,0.4-0.5,0.7s-0.3,0.6-0.3,0.9
					c0.5-0.1,1.1-0.2,1.7-0.5s1.2-0.5,1.7-0.7c-0.1-0.5-0.2-0.9-0.5-1.2S-644.9,1045-645.2,1044.9z"/>
				<path class="st1" d="M-626.3,1042.2c0,0.1,0,0.2,0,0.2s0,0.1,0,0.2s0,0.1,0,0.2s0,0.1,0,0.2c-0.3,0.5-0.7,0.9-1.1,1.1
					s-0.9,0.3-1.4,0.4s-1,0.2-1.5,0.3s-1,0.3-1.6,0.6c-0.2-0.1-0.4-0.1-0.6,0s-0.4,0.1-0.7,0.1c-0.1,0.1-0.2,0.2-0.4,0.2
					s-0.3,0.1-0.4,0.1c0.1,0.1,0.1,0.3,0.1,0.4s0,0.3,0.1,0.4c0.5,0,1.2,0,1.8,0s1.3-0.1,2-0.1c0,0.1,0,0.1,0,0.2s0,0.1,0,0.1
					c0.1,0.1,0.2,0.2,0.3,0.3s0.2,0.2,0.3,0.3s0.2,0.2,0.3,0.3s0.3,0.1,0.4,0.1c0.1,0.1,0.1,0.3,0.1,0.4s0,0.3-0.1,0.5
					c-0.2,0.2-0.5,0.3-0.8,0.5s-0.5,0.3-0.8,0.5s-0.6,0.3-0.9,0.3s-0.6,0.1-1,0.1c-0.1,0-0.1,0-0.2,0s-0.1,0-0.2-0.1
					c-0.1,0.1-0.3,0.1-0.5,0.1s-0.4,0-0.5,0.1c-0.2-0.1-0.4-0.1-0.6-0.1s-0.5,0-0.6-0.1c-0.2,0.3-0.5,0.7-0.7,1.1s-0.4,0.8-0.5,1.2
					c0.5,0.1,1,0.1,1.3,0.1s0.7,0,1-0.1s0.6-0.1,1-0.1s0.7-0.1,1.2,0c0.3-0.2,0.7-0.3,1.1-0.3s0.8-0.1,1.2-0.3
					c0.1,0,0.2,0.1,0.3,0.2s0.2,0.2,0.3,0.3s0.2,0.2,0.3,0.3s0.2,0.1,0.4,0.1c0.1,0.1,0.1,0.1,0.1,0.2s0,0.2,0.1,0.2s0,0.1,0.1,0.2
					s0.1,0.1,0.2,0.1c-0.2,0.5-0.5,0.9-0.8,1.2s-0.7,0.5-1,0.6s-0.8,0.2-1.3,0.3s-1,0.2-1.6,0.3c-0.1,0-0.3,0-0.4,0
					s-0.2-0.1-0.3-0.1c-0.4,0.1-0.8,0.1-1.3,0.2s-1,0.1-1.5,0.1s-1-0.1-1.5-0.2s-0.9-0.3-1.1-0.6c-0.1-0.1-0.2-0.2-0.2-0.4
					s-0.1-0.3-0.3-0.3c0-0.2,0-0.4-0.1-0.7s-0.1-0.5-0.1-0.8s-0.1-0.5-0.1-0.8s0-0.5,0-0.7c0-0.2,0.1-0.4,0.3-0.6s0.2-0.4,0.2-0.6
					c0.1,0,0.1-0.1,0.1-0.1s0.1-0.1,0.2-0.1c0.1-0.3,0.2-0.5,0.3-0.8s0.2-0.5,0.3-0.7s0.2-0.5,0.4-0.7s0.2-0.5,0.3-0.8
					c-0.2-0.2-0.4-0.4-0.5-0.7s-0.2-0.5-0.2-0.7s-0.1-0.5-0.1-0.8s-0.1-0.5-0.2-0.8c0.2-0.2,0.3-0.4,0.6-0.6s0.5-0.3,0.7-0.4
					s0.6-0.2,0.9-0.2s0.6-0.1,1-0.2c0.6-0.2,1.2-0.4,1.7-0.5s1-0.2,1.5-0.3s1-0.1,1.5-0.2s1.1-0.2,1.8-0.3c0.1,0.1,0.3,0.2,0.4,0.2
					c0.1-0.1,0.1-0.2,0.2-0.1s0.1,0,0.1-0.1c0.2,0.3,0.4,0.5,0.6,0.7S-626.6,1042.1-626.3,1042.2z"/>
				<path class="st1" d="M-614.4,1053.4c-0.1,0.3-0.2,0.5-0.4,0.8s-0.4,0.5-0.6,0.7s-0.5,0.4-0.8,0.5s-0.6,0.2-0.9,0.2
					c-0.2,0-0.3-0.1-0.4-0.2s-0.1-0.1-0.2-0.2c0,0-0.1-0.1-0.1-0.1s-0.1,0-0.1-0.1l-0.3-0.1l0.1-0.3c0-0.1,0-0.2,0-0.3
					s-0.1-0.2-0.3-0.3c0,0-0.1-0.1-0.1-0.1s-0.1-0.1-0.1-0.1l-0.4-0.4l0.6-0.2c0.4-0.1,0.7-0.2,0.8-0.4s0.2-0.5,0.2-0.9
					c-0.3-0.1-0.6-0.1-0.8,0s-0.4,0.1-0.6,0.2c-0.3,0.1-0.6,0.1-0.9,0.2s-0.6,0.1-0.9,0.1c-0.1,0-0.2,0-0.4,0s-0.2,0-0.4,0l-0.2,0
					c0-0.2-0.1-0.3-0.1-0.3s-0.1-0.1-0.1-0.1c-0.1-0.1-0.2-0.2-0.2-0.3s-0.1-0.3-0.1-0.5c-0.1-0.1-0.1-0.3-0.1-0.4
					c-0.1,0.2-0.2,0.4-0.2,0.6l-0.1,0.2l-0.2,0c0,0-0.1,0.1-0.1,0.1s0,0.1,0,0.1l-0.1,0.4c0,0-0.1,0.1-0.1,0.1s-0.1,0.1-0.1,0.1
					c0,0.1-0.1,0.3-0.1,0.4s-0.1,0.3-0.1,0.4c-0.1,0.2-0.1,0.4-0.2,0.6s-0.1,0.4-0.1,0.6l-0.1,0.3c-0.1,0.1-0.2,0.2-0.3,0.2
					s-0.2,0.1-0.3,0.2c0,0-0.1,0.1-0.1,0.1s-0.1,0-0.1,0.1l-0.1,0.3l-0.3,0c-0.2,0-0.3,0.1-0.4,0.1s-0.2,0-0.2,0l-0.2,0
					c-0.2-0.1-0.3-0.3-0.4-0.3s-0.2-0.2-0.3-0.2c-0.1-0.2-0.2-0.3-0.2-0.4s0-0.2,0-0.3c0-0.1-0.1-0.2-0.1-0.2s0-0.1-0.1-0.1
					l-0.3-0.3l0.3-0.2l0-0.4c0.3-0.8,0.6-1.6,1-2.3s0.7-1.5,1.1-2.2c0.1-0.2,0.2-0.5,0.4-0.8s0.2-0.5,0.4-0.8c0,0,0-0.1,0-0.2
					s0-0.1,0-0.2c0.2-0.3,0.3-0.5,0.4-0.7s0.2-0.4,0.3-0.6c0.1-0.3,0.3-0.5,0.4-0.8s0.3-0.5,0.5-0.8l0.4-0.2c0,0,0.1,0,0.2-0.1
					s0.1,0,0.2,0l0.4,0c0.4-0.2,0.8-0.5,1.1-0.9s0.7-0.8,1-1.3l0.2-0.3l0.3,0.2c0.1,0,0.2,0.1,0.3,0.1s0.3,0.1,0.4,0.1
					c0.3,0.1,0.5,0.1,0.8,0.2s0.5,0.2,0.6,0.4c0.1,0.2,0.1,0.4,0.2,0.6s0,0.2,0.1,0.4c0,0.3,0.1,0.5,0.1,0.8s0.1,0.6,0.1,0.9
					c0.1,0.3,0.1,0.5,0.2,0.8s0.1,0.5,0.2,0.8c0.1,0.4,0.2,0.7,0.2,1.1s0.2,0.7,0.3,1c0.1,0,0.2,0,0.2,0c0.1,0,0.2-0.1,0.2-0.1
					s0.2,0,0.3,0l0.3,0l0.1,0.2c0,0.1,0.1,0.2,0.2,0.2c0.2,0,0.4,0.1,0.4,0.1s0.2,0.1,0.3,0.2c0.1,0.1,0.1,0.1,0.2,0.1l0.4,0.1
					l-0.2,0.4c-0.2,0.3-0.4,0.6-0.7,0.8s-0.6,0.5-1,0.6c0,0.1,0,0.2,0,0.3s0,0.2,0.1,0.3c0,0.3,0.1,0.5,0.1,0.8
					S-614.4,1053-614.4,1053.4L-614.4,1053.4z M-621.2,1049.4c0.5,0,0.9-0.1,1.3-0.1s0.8-0.1,1.3-0.2c-0.1-0.5-0.2-1-0.4-1.5
					s-0.3-1-0.4-1.5l-0.1,0.2c-0.3,0.3-0.6,0.7-0.9,1.1s-0.5,0.8-0.7,1.1c-0.1,0.1-0.2,0.3-0.3,0.4s-0.2,0.3-0.3,0.4
					c0.1,0,0.2,0,0.3,0S-621.3,1049.4-621.2,1049.4z"/>
				<path class="st1" d="M-600.8,1044.1c-0.4,0-0.8,0-1.3,0.1s-0.9,0.1-1.3,0.2c-0.3,0-0.6,0.1-0.9,0.1s-0.6,0.1-0.8,0.1
					c-0.1,0.3-0.2,0.6-0.3,0.9s-0.2,0.5-0.4,0.8c-0.1,0.3-0.2,0.5-0.3,0.8s-0.2,0.6-0.3,0.9c-0.2,0.2-0.3,0.5-0.4,0.7
					s-0.2,0.4-0.2,0.7c-0.2,0.2-0.3,0.5-0.4,0.7s-0.2,0.5-0.2,0.7l-0.1,0.3c-0.1,0.1-0.1,0.2-0.2,0.2s-0.1,0.1-0.1,0.2
					c0,0.2-0.1,0.3-0.2,0.5c0,0.1-0.1,0.2-0.1,0.2s0,0.1,0,0.2c0,0.2,0,0.3-0.1,0.3c0,0.1,0,0.2,0,0.2s0,0.2,0,0.2
					c0,0.2-0.1,0.3,0,0.4c0,0.1,0.1,0.1,0.1,0.2s0.1,0.1,0.1,0.2c0.1,0.1,0.2,0.1,0.2,0.1c0.1,0,0.2,0.1,0.3,0.2l0.2,0.2
					c0.1,0.5,0,0.8-0.2,1.1c-0.2,0.3-0.6,0.4-1.2,0.4h-0.3c-0.1-0.1-0.1-0.1-0.1-0.2c-0.1,0-0.2-0.1-0.3-0.1s-0.1-0.1-0.2-0.2
					c-0.2-0.1-0.4-0.2-0.5-0.2l-0.2-0.1c0-0.2,0-0.3,0-0.3c-0.1-0.1-0.2-0.3-0.2-0.5s-0.1-0.3-0.1-0.5c0-0.1-0.1-0.3-0.1-0.4
					s-0.1-0.2-0.2-0.3c0-0.9,0.1-1.7,0.3-2.3s0.4-1.2,0.6-1.8c0.1-0.3,0.2-0.6,0.4-0.9s0.2-0.7,0.3-1l0.2-0.2
					c0.1-0.2,0.2-0.5,0.3-0.6s0.1-0.3,0.2-0.5c0-0.1,0.1-0.2,0.1-0.3s0.1-0.2,0.1-0.3c-0.1,0-0.2,0-0.3,0s-0.2,0-0.2,0
					c-0.1,0-0.2,0-0.3,0s-0.2,0-0.2,0c-0.1,0-0.2,0-0.2,0c-0.2,0.1-0.4,0.1-0.6,0.1h-0.2c0,0-0.1,0-0.1,0s-0.1,0-0.1,0
					c-0.2,0-0.3,0-0.4,0.1c-0.2,0-0.4,0-0.5,0h-0.2c0,0-0.1,0-0.1,0s-0.1,0-0.1,0c-0.1,0-0.2,0-0.4,0s-0.3-0.1-0.4-0.2
					c-0.2-0.2-0.3-0.4-0.4-0.4l-0.2-0.3c0-0.1,0-0.2-0.1-0.3s-0.1-0.2-0.1-0.3c-0.1-0.2-0.1-0.3-0.2-0.5s-0.1-0.4-0.1-0.6
					c0-0.1,0-0.2,0.1-0.3s0.1-0.1,0.1-0.2l0.1-0.4l0.3,0h0.7c0.5,0,1,0,1.5-0.1s1-0.1,1.6-0.1c0.3,0,0.6-0.1,0.9-0.1s0.7-0.1,1-0.1
					c0.1-0.1,0.1-0.3,0.2-0.4l0.2-0.1c0.3,0,0.5,0,0.6,0.1s0.2,0.2,0.3,0.2c0.3,0,0.7-0.1,1-0.1s0.7-0.1,1.1-0.2
					c0.5-0.1,1.1-0.1,1.6-0.2s1.1-0.1,1.6-0.1c0.2,0,0.4,0,0.6,0s0.4,0,0.6,0.1l0.2,0.2c0,0.1,0.1,0.2,0.2,0.3s0.2,0.2,0.3,0.2
					c0.2,0.2,0.4,0.4,0.6,0.6s0.3,0.6,0.2,1c-0.1,0.2-0.2,0.3-0.3,0.3l-0.2,0.3l-0.2,0c-0.1,0-0.2,0-0.3,0s-0.2,0.1-0.2,0.1
					c-0.1,0-0.1,0.1-0.2,0.1s-0.1,0-0.2,0.1c-0.1,0-0.3,0-0.3,0S-600.7,1044.1-600.8,1044.1z"/>
				<path class="st1" d="M-589.5,1042.2c0,0.1,0,0.2,0,0.2s0,0.1,0,0.2s0,0.1,0,0.2s0,0.1,0,0.2c-0.3,0.5-0.7,0.9-1.1,1.1
					s-0.9,0.3-1.4,0.4s-1,0.2-1.5,0.3s-1,0.3-1.6,0.6c-0.2-0.1-0.4-0.1-0.6,0s-0.4,0.1-0.7,0.1c-0.1,0.1-0.2,0.2-0.4,0.2
					s-0.3,0.1-0.4,0.1c0.1,0.1,0.1,0.3,0.1,0.4s0,0.3,0.1,0.4c0.5,0,1.2,0,1.8,0s1.3-0.1,2-0.1c0,0.1,0,0.1,0,0.2s0,0.1,0,0.1
					c0.1,0.1,0.2,0.2,0.3,0.3s0.2,0.2,0.3,0.3s0.2,0.2,0.3,0.3s0.3,0.1,0.4,0.1c0.1,0.1,0.1,0.3,0.1,0.4s0,0.3-0.1,0.5
					c-0.2,0.2-0.5,0.3-0.8,0.5s-0.5,0.3-0.8,0.5s-0.6,0.3-0.9,0.3s-0.6,0.1-1,0.1c-0.1,0-0.1,0-0.2,0s-0.1,0-0.2-0.1
					c-0.1,0.1-0.3,0.1-0.5,0.1s-0.4,0-0.5,0.1c-0.2-0.1-0.4-0.1-0.6-0.1s-0.5,0-0.6-0.1c-0.2,0.3-0.5,0.7-0.7,1.1s-0.4,0.8-0.5,1.2
					c0.5,0.1,1,0.1,1.3,0.1s0.7,0,1-0.1s0.6-0.1,1-0.1s0.7-0.1,1.2,0c0.3-0.2,0.7-0.3,1.1-0.3s0.8-0.1,1.2-0.3
					c0.1,0,0.2,0.1,0.3,0.2s0.2,0.2,0.3,0.3s0.2,0.2,0.3,0.3s0.2,0.1,0.4,0.1c0.1,0.1,0.1,0.1,0.1,0.2s0,0.2,0.1,0.2s0,0.1,0.1,0.2
					s0.1,0.1,0.2,0.1c-0.2,0.5-0.5,0.9-0.8,1.2s-0.7,0.5-1,0.6s-0.8,0.2-1.3,0.3s-1,0.2-1.6,0.3c-0.1,0-0.3,0-0.4,0
					s-0.2-0.1-0.3-0.1c-0.4,0.1-0.8,0.1-1.3,0.2s-1,0.1-1.5,0.1s-1-0.1-1.5-0.2s-0.9-0.3-1.1-0.6c-0.1-0.1-0.2-0.2-0.2-0.4
					s-0.1-0.3-0.3-0.3c0-0.2,0-0.4-0.1-0.7s-0.1-0.5-0.1-0.8s-0.1-0.5-0.1-0.8s0-0.5,0-0.7c0-0.2,0.1-0.4,0.3-0.6s0.2-0.4,0.2-0.6
					c0.1,0,0.1-0.1,0.1-0.1s0.1-0.1,0.2-0.1c0.1-0.3,0.2-0.5,0.3-0.8s0.2-0.5,0.3-0.7s0.2-0.5,0.4-0.7s0.2-0.5,0.3-0.8
					c-0.2-0.2-0.4-0.4-0.5-0.7s-0.2-0.5-0.2-0.7s-0.1-0.5-0.1-0.8s-0.1-0.5-0.2-0.8c0.2-0.2,0.3-0.4,0.6-0.6s0.5-0.3,0.7-0.4
					s0.6-0.2,0.9-0.2s0.6-0.1,1-0.2c0.6-0.2,1.2-0.4,1.7-0.5s1-0.2,1.5-0.3s1-0.1,1.5-0.2s1.1-0.2,1.8-0.3c0.1,0.1,0.3,0.2,0.4,0.2
					c0.1-0.1,0.1-0.2,0.2-0.1s0.1,0,0.1-0.1c0.2,0.3,0.4,0.5,0.6,0.7S-589.8,1042.1-589.5,1042.2z"/>
				<path class="st1" d="M-568.8,1053.4c-0.1,0.3-0.2,0.5-0.4,0.8s-0.4,0.5-0.6,0.7s-0.5,0.4-0.8,0.5s-0.6,0.2-0.9,0.2
					c-0.2,0-0.3-0.1-0.4-0.2s-0.1-0.1-0.2-0.2c0,0-0.1-0.1-0.1-0.1s-0.1,0-0.1-0.1l-0.3-0.1l0.1-0.3c0-0.1,0-0.2,0-0.3
					s-0.1-0.2-0.3-0.3c0,0-0.1-0.1-0.1-0.1s-0.1-0.1-0.1-0.1l-0.4-0.4l0.6-0.2c0.4-0.1,0.7-0.2,0.8-0.4s0.2-0.5,0.2-0.9
					c-0.3-0.1-0.6-0.1-0.8,0s-0.4,0.1-0.6,0.2c-0.3,0.1-0.6,0.1-0.9,0.2s-0.6,0.1-0.9,0.1c-0.1,0-0.2,0-0.4,0s-0.2,0-0.4,0l-0.2,0
					c0-0.2-0.1-0.3-0.1-0.3s-0.1-0.1-0.1-0.1c-0.1-0.1-0.2-0.2-0.2-0.3s-0.1-0.3-0.1-0.5c-0.1-0.1-0.1-0.3-0.1-0.4
					c-0.1,0.2-0.2,0.4-0.2,0.6l-0.1,0.2l-0.2,0c0,0-0.1,0.1-0.1,0.1s0,0.1,0,0.1l-0.1,0.4c0,0-0.1,0.1-0.1,0.1s-0.1,0.1-0.1,0.1
					c0,0.1-0.1,0.3-0.1,0.4s-0.1,0.3-0.1,0.4c-0.1,0.2-0.1,0.4-0.2,0.6s-0.1,0.4-0.1,0.6l-0.1,0.3c-0.1,0.1-0.2,0.2-0.3,0.2
					s-0.2,0.1-0.3,0.2c0,0-0.1,0.1-0.1,0.1s-0.1,0-0.1,0.1l-0.1,0.3l-0.3,0c-0.2,0-0.3,0.1-0.4,0.1s-0.2,0-0.2,0l-0.2,0
					c-0.2-0.1-0.3-0.3-0.4-0.3s-0.2-0.2-0.3-0.2c-0.1-0.2-0.2-0.3-0.2-0.4s0-0.2,0-0.3c0-0.1-0.1-0.2-0.1-0.2s0-0.1-0.1-0.1
					l-0.3-0.3l0.3-0.2l0-0.4c0.3-0.8,0.6-1.6,1-2.3s0.7-1.5,1.1-2.2c0.1-0.2,0.2-0.5,0.4-0.8s0.2-0.5,0.4-0.8c0,0,0-0.1,0-0.2
					s0-0.1,0-0.2c0.2-0.3,0.3-0.5,0.4-0.7s0.2-0.4,0.3-0.6c0.1-0.3,0.3-0.5,0.4-0.8s0.3-0.5,0.5-0.8l0.4-0.2c0,0,0.1,0,0.2-0.1
					s0.1,0,0.2,0l0.4,0c0.4-0.2,0.8-0.5,1.1-0.9s0.7-0.8,1-1.3l0.2-0.3l0.3,0.2c0.1,0,0.2,0.1,0.3,0.1s0.3,0.1,0.4,0.1
					c0.3,0.1,0.5,0.1,0.8,0.2s0.5,0.2,0.6,0.4c0.1,0.2,0.1,0.4,0.2,0.6s0,0.2,0.1,0.4c0,0.3,0.1,0.5,0.1,0.8s0.1,0.6,0.1,0.9
					c0.1,0.3,0.1,0.5,0.2,0.8s0.1,0.5,0.2,0.8c0.1,0.4,0.2,0.7,0.2,1.1s0.2,0.7,0.3,1c0.1,0,0.2,0,0.2,0c0.1,0,0.2-0.1,0.2-0.1
					s0.2,0,0.3,0l0.3,0l0.1,0.2c0,0.1,0.1,0.2,0.2,0.2c0.2,0,0.4,0.1,0.4,0.1s0.2,0.1,0.3,0.2c0.1,0.1,0.1,0.1,0.2,0.1l0.4,0.1
					l-0.2,0.4c-0.2,0.3-0.4,0.6-0.7,0.8s-0.6,0.5-1,0.6c0,0.1,0,0.2,0,0.3s0,0.2,0.1,0.3c0,0.3,0.1,0.5,0.1,0.8
					S-568.7,1053-568.8,1053.4L-568.8,1053.4z M-575.6,1049.4c0.5,0,0.9-0.1,1.3-0.1s0.8-0.1,1.3-0.2c-0.1-0.5-0.2-1-0.4-1.5
					s-0.3-1-0.4-1.5l-0.1,0.2c-0.3,0.3-0.6,0.7-0.9,1.1s-0.5,0.8-0.7,1.1c-0.1,0.1-0.2,0.3-0.3,0.4s-0.2,0.3-0.3,0.4
					c0.1,0,0.2,0,0.3,0S-575.6,1049.4-575.6,1049.4z"/>
			</g>
			<g class="st0">
				<path class="st1" d="M-651.8,1079.9c-0.2,0.6-0.3,1.1-0.5,1.4s-0.3,0.7-0.6,1c-0.2,0-0.3,0-0.4,0.1s-0.2,0.1-0.3,0.2
					c-0.1,0-0.2,0-0.3,0s-0.1-0.1-0.2-0.1s-0.1-0.1-0.2-0.1s-0.2-0.1-0.3-0.1c0-0.1-0.1-0.2-0.1-0.4s-0.1-0.1-0.3-0.1
					c0-0.1,0-0.2,0-0.3s0-0.2-0.1-0.2s0-0.1-0.1-0.2s0-0.2,0-0.3c-0.1,0-0.1-0.1-0.2-0.2s-0.1-0.2-0.2-0.3c0-0.3,0.1-0.5,0.1-0.8
					s0.1-0.5,0.2-0.7s0.1-0.4,0.2-0.7s0-0.4-0.1-0.7c0.1,0,0.1,0,0.1,0s0.1-0.2,0.1-0.3s0-0.2,0-0.4s0-0.2,0-0.3
					c0.2-0.4,0.3-0.8,0.4-1.3s0.2-0.9,0.3-1.3s0.2-0.8,0.3-1.2s0.2-0.8,0.4-1.1c0.2,0,0.4,0,0.6,0.1s0.3,0.2,0.4,0.3
					c0.4-0.3,0.8-0.7,1.1-1.1s0.6-0.9,1-1.3s0.7-0.8,1.1-1.1s0.9-0.5,1.5-0.6c0.3,0.2,0.7,0.5,1,0.7s0.7,0.6,0.9,0.9
					c0.1,0.1,0.2,0.1,0.3,0.2s0.2,0.1,0.3,0.2v0.3c0.2,0.2,0.3,0.4,0.5,0.6s0.2,0.5,0.3,0.7s0.2,0.5,0.3,0.8s0.2,0.5,0.3,0.7
					c0,0.1,0,0.1,0,0.2s0,0.1,0,0.2s0,0.1,0.1,0.2s0,0.1,0,0.3c0,0.7-0.3,1.2-0.7,1.7s-0.9,0.8-1.4,1s-1.2,0.5-1.8,0.7
					s-1.2,0.4-1.7,0.6c0,0.1,0,0.1,0.1,0.1s0.1,0,0.1,0.1c0.4,0.2,0.7,0.4,0.9,0.6s0.4,0.3,0.6,0.4s0.4,0.2,0.6,0.2s0.5,0.2,0.9,0.2
					s0.7,0.2,0.9,0.2s0.4,0.1,0.6,0.1s0.4,0.1,0.6,0.1s0.5,0.1,0.8,0.1c0.1,0.1,0.3,0.3,0.4,0.5s0.2,0.4,0.2,0.6s0,0.4,0,0.6
					s-0.1,0.3-0.2,0.4c0,0,0.1,0.1,0.1,0.1s0.1,0,0.2,0c-0.1,0.1-0.2,0.1-0.2,0.2s-0.1,0.2-0.2,0.3s-0.1,0.2-0.2,0.2
					s-0.2,0.1-0.3,0.1c-0.5,0.2-1.1,0.2-1.8,0s-1.7-0.5-2.8-0.9c-0.6-0.2-1-0.4-1.4-0.6s-0.7-0.3-0.9-0.5s-0.5-0.3-0.7-0.5
					S-651.5,1080.2-651.8,1079.9z M-648.5,1071.9c-0.2,0.2-0.4,0.5-0.6,0.7s-0.4,0.4-0.6,0.6s-0.4,0.4-0.5,0.7s-0.3,0.6-0.3,0.9
					c0.5-0.1,1.1-0.2,1.7-0.5s1.2-0.5,1.7-0.7c-0.1-0.5-0.2-0.9-0.5-1.2S-648.2,1072-648.5,1071.9z"/>
				<path class="st1" d="M-629.5,1069.2c0,0.1,0,0.2,0,0.2s0,0.1,0,0.2s0,0.1,0,0.2s0,0.1,0,0.2c-0.3,0.5-0.7,0.9-1.1,1.1
					s-0.9,0.3-1.4,0.4s-1,0.2-1.5,0.3s-1,0.3-1.6,0.6c-0.2-0.1-0.4-0.1-0.6,0s-0.4,0.1-0.7,0.1c-0.1,0.1-0.2,0.2-0.4,0.2
					s-0.3,0.1-0.4,0.1c0.1,0.1,0.1,0.3,0.1,0.4s0,0.3,0.1,0.4c0.5,0,1.2,0,1.8,0s1.3-0.1,2-0.1c0,0.1,0,0.1,0,0.2s0,0.1,0,0.1
					c0.1,0.1,0.2,0.2,0.3,0.3s0.2,0.2,0.3,0.3s0.2,0.2,0.3,0.3s0.3,0.1,0.4,0.1c0.1,0.1,0.1,0.3,0.1,0.4s0,0.3-0.1,0.5
					c-0.2,0.2-0.5,0.3-0.8,0.5s-0.5,0.3-0.8,0.5s-0.6,0.3-0.9,0.3s-0.6,0.1-1,0.1c-0.1,0-0.1,0-0.2,0s-0.1,0-0.2-0.1
					c-0.1,0.1-0.3,0.1-0.5,0.1s-0.4,0-0.5,0.1c-0.2-0.1-0.4-0.1-0.6-0.1s-0.5,0-0.6-0.1c-0.2,0.3-0.5,0.7-0.7,1.1s-0.4,0.8-0.5,1.2
					c0.5,0.1,1,0.1,1.3,0.1s0.7,0,1-0.1s0.6-0.1,1-0.1s0.7-0.1,1.2,0c0.3-0.2,0.7-0.3,1.1-0.3s0.8-0.1,1.2-0.3
					c0.1,0,0.2,0.1,0.3,0.2s0.2,0.2,0.3,0.3s0.2,0.2,0.3,0.3s0.2,0.1,0.4,0.1c0.1,0.1,0.1,0.1,0.1,0.2s0,0.2,0.1,0.2s0,0.1,0.1,0.2
					s0.1,0.1,0.2,0.1c-0.2,0.5-0.5,0.9-0.8,1.2s-0.7,0.5-1,0.6s-0.8,0.2-1.3,0.3s-1,0.2-1.6,0.3c-0.1,0-0.3,0-0.4,0
					s-0.2-0.1-0.3-0.1c-0.4,0.1-0.8,0.1-1.3,0.2s-1,0.1-1.5,0.1s-1-0.1-1.5-0.2s-0.9-0.3-1.1-0.6c-0.1-0.1-0.2-0.2-0.2-0.4
					s-0.1-0.3-0.3-0.3c0-0.2,0-0.4-0.1-0.7s-0.1-0.5-0.1-0.8s-0.1-0.5-0.1-0.8s0-0.5,0-0.7c0-0.2,0.1-0.4,0.3-0.6s0.2-0.4,0.2-0.6
					c0.1,0,0.1-0.1,0.1-0.1s0.1-0.1,0.2-0.1c0.1-0.3,0.2-0.5,0.3-0.8s0.2-0.5,0.3-0.7s0.2-0.5,0.4-0.7s0.2-0.5,0.3-0.8
					c-0.2-0.2-0.4-0.4-0.5-0.7s-0.2-0.5-0.2-0.7s-0.1-0.5-0.1-0.8s-0.1-0.5-0.2-0.8c0.2-0.2,0.3-0.4,0.6-0.6s0.5-0.3,0.7-0.4
					s0.6-0.2,0.9-0.2s0.6-0.1,1-0.2c0.6-0.2,1.2-0.4,1.7-0.5s1-0.2,1.5-0.3s1-0.1,1.5-0.2s1.1-0.2,1.8-0.3c0.1,0.1,0.3,0.2,0.4,0.2
					c0.1-0.1,0.1-0.2,0.2-0.1s0.1,0,0.1-0.1c0.2,0.3,0.4,0.5,0.6,0.7S-629.8,1069.1-629.5,1069.2z"/>
				<path class="st1" d="M-621.3,1067.8c0.7,0.1,1.2,0.2,1.8,0.4s1,0.4,1.3,0.8c0.2,0.4,0.5,0.8,0.7,1.3s0.4,0.9,0.5,1.4
					s0.2,1,0.2,1.5s-0.1,1-0.3,1.6c-0.5,0.6-1,1-1.7,1.4s-1.3,0.6-2.1,0.9s-1.5,0.4-2.3,0.6s-1.6,0.3-2.4,0.5c0,0.4,0,0.7,0,1.1
					s0,0.8-0.1,1.2s-0.2,0.8-0.3,1.2s-0.3,0.7-0.6,1c-0.3,0-0.5,0-0.8,0.1s-0.5,0.1-0.8,0.2c-0.1-0.1-0.2-0.1-0.3-0.2
					s-0.2-0.1-0.4-0.1c0-0.2,0-0.3-0.1-0.5s-0.2-0.3-0.3-0.5s-0.2-0.3-0.2-0.5s0-0.3,0.2-0.4c-0.1-0.1-0.2-0.2-0.2-0.4
					c0.1-0.2,0.2-0.4,0.3-0.8s0.2-0.7,0.2-1s0.1-0.6,0-0.9s-0.2-0.5-0.5-0.6c0,0,0,0,0.1,0s0.1,0,0.1,0c-0.1-0.1-0.2-0.2-0.2-0.4
					s-0.1-0.3-0.2-0.4c0-0.1,0.1-0.1,0.1-0.2s0.1-0.1,0.2-0.1c0-0.3,0-0.5,0-0.8s0.1-0.5,0.2-0.7s0.2-0.4,0.4-0.7s0.3-0.4,0.4-0.7
					c0.1,0,0.2,0,0.2,0s0.1,0,0.2,0c0.2-0.2,0.3-0.3,0.4-0.5s0.1-0.4,0.1-0.6c0.1-0.3,0.2-0.7,0.4-1s0.3-0.6,0.5-0.9
					s0.4-0.5,0.6-0.8s0.5-0.4,0.7-0.5c0.2-0.2,0.4-0.3,0.7-0.4s0.6-0.2,0.9-0.3s0.7-0.1,1-0.1s0.6,0,0.9,0.1
					C-621.4,1068-621.4,1068-621.3,1067.8C-621.3,1067.9-621.3,1067.8-621.3,1067.8z M-622.2,1073.4c0.4-0.2,0.8-0.3,1.3-0.4
					s0.8-0.3,1.1-0.6c-0.2-0.2-0.5-0.3-0.8-0.5s-0.8-0.2-1.2-0.2s-0.8,0-1.3,0.1s-0.8,0.3-1.1,0.6c-0.1,0.3-0.2,0.5-0.2,0.7
					s-0.1,0.4-0.3,0.6c0,0.1,0.1,0.1,0.2,0.2s0.1,0.1,0.2,0.2c0.4-0.2,0.7-0.3,1.1-0.3S-622.6,1073.6-622.2,1073.4z"/>
				<path class="st1" d="M-603.8,1075.3c0,0.2,0,0.4,0,0.5s0.1,0.3,0.2,0.5s0.1,0.3,0.2,0.5s0.1,0.3,0.1,0.5c0,0.2,0,0.5,0,0.7
					s-0.1,0.5-0.2,0.8s-0.2,0.5-0.3,0.7s-0.3,0.3-0.4,0.4c-0.2,0.3-0.5,0.5-0.8,0.7s-0.6,0.3-0.9,0.6c-0.2,0.1-0.4,0.2-0.6,0.2
					s-0.4,0.1-0.6,0.1c-0.2,0.1-0.4,0.2-0.6,0.3s-0.5,0.2-0.7,0.3s-0.5,0.1-0.8,0.2s-0.5,0.1-0.7,0c-0.5,0.2-0.9,0.3-1.4,0.3
					s-1,0-1.6-0.1c-0.6,0.1-1.1,0.1-1.6-0.1s-0.9-0.3-1.3-0.6s-0.7-0.6-1-1s-0.5-0.8-0.7-1.2c-0.1-0.9-0.1-1.7,0.1-2.4
					s0.5-1.4,0.8-2s0.8-1.2,1.2-1.7s0.9-1,1.3-1.5c0.1,0,0.2,0,0.2,0s0.1-0.1,0.2-0.2s0.1-0.1,0.2-0.2s0.1-0.1,0.2-0.1
					c0.1-0.2,0.3-0.4,0.5-0.5s0.4-0.3,0.5-0.5c0.1,0,0.3-0.1,0.4-0.1s0.2-0.1,0.3-0.2s0.2-0.2,0.3-0.2s0.2-0.1,0.3-0.2v-0.3
					c0.3-0.1,0.5-0.3,0.6-0.4s0.3-0.4,0.5-0.6c0.1,0,0.3,0,0.3,0s0.2,0,0.4,0c0.1-0.2,0.2-0.4,0.3-0.5s0.3-0.2,0.5-0.4
					c0.2,0.1,0.4,0.2,0.6,0.2s0.4,0.1,0.6,0.3c0,0.2,0.1,0.3,0.1,0.4s0.2,0.2,0.3,0.2s0.2,0.1,0.3,0.2s0.1,0.2,0.2,0.3
					c0.1,0,0.1,0,0.1,0s0.1,0,0.1,0c0,0.2,0.1,0.4,0.2,0.4s0.1,0.2,0.2,0.4c-0.1,0.2-0.1,0.3-0.2,0.5s-0.1,0.3-0.3,0.4
					c0,0.1,0,0.2,0.1,0.2s0.1,0.1,0.1,0.1c0,0.1,0,0.2-0.1,0.3c0.4,0.6,0.7,1.3,1,1.9S-604.2,1074.7-603.8,1075.3z M-606.8,1077.6
					c0.1-0.2,0.1-0.3,0.2-0.4s0.2-0.3,0.2-0.5c-0.1-0.1-0.1-0.2-0.1-0.3s0-0.2,0-0.3c-0.3-0.5-0.6-1-0.9-1.6s-0.5-1.1-0.8-1.6
					c0,0.1-0.1,0.1-0.2,0.2s-0.2,0-0.3,0c0,0.1-0.1,0.2-0.2,0.3s-0.2,0.1-0.3,0.1s-0.2,0-0.3-0.1s-0.2-0.1-0.3-0.2
					c-0.5,0.4-0.9,0.7-1.4,1.1s-0.9,0.7-1.2,1.2c-0.1,0-0.1,0-0.1,0s-0.1,0-0.1,0c-0.1,0.3-0.3,0.6-0.5,0.8s-0.4,0.5-0.5,0.7
					s-0.3,0.5-0.4,0.8s-0.2,0.6-0.2,1c0.3,0.2,0.6,0.4,0.9,0.4s0.7,0.1,1.1,0s0.8-0.1,1.1-0.2s0.7-0.1,1-0.1
					c0.7-0.2,1.2-0.4,1.7-0.6S-607.3,1077.8-606.8,1077.6z"/>
				<path class="st1" d="M-598.6,1079.9c-0.2,0.6-0.3,1.1-0.5,1.4s-0.3,0.7-0.6,1c-0.2,0-0.3,0-0.4,0.1s-0.2,0.1-0.3,0.2
					c-0.1,0-0.2,0-0.3,0s-0.1-0.1-0.2-0.1s-0.1-0.1-0.2-0.1s-0.2-0.1-0.3-0.1c0-0.1-0.1-0.2-0.1-0.4s-0.1-0.1-0.3-0.1
					c0-0.1,0-0.2,0-0.3s0-0.2-0.1-0.2s0-0.1-0.1-0.2s0-0.2,0-0.3c-0.1,0-0.1-0.1-0.2-0.2s-0.1-0.2-0.2-0.3c0-0.3,0.1-0.5,0.1-0.8
					s0.1-0.5,0.2-0.7s0.1-0.4,0.2-0.7s0-0.4-0.1-0.7c0.1,0,0.1,0,0.1,0s0.1-0.2,0.1-0.3s0-0.2,0-0.4s0-0.2,0-0.3
					c0.2-0.4,0.3-0.8,0.4-1.3s0.2-0.9,0.3-1.3s0.2-0.8,0.3-1.2s0.2-0.8,0.4-1.1c0.2,0,0.4,0,0.6,0.1s0.3,0.2,0.4,0.3
					c0.4-0.3,0.8-0.7,1.1-1.1s0.6-0.9,1-1.3s0.7-0.8,1.1-1.1s0.9-0.5,1.5-0.6c0.3,0.2,0.7,0.5,1,0.7s0.7,0.6,0.9,0.9
					c0.1,0.1,0.2,0.1,0.3,0.2s0.2,0.1,0.3,0.2v0.3c0.2,0.2,0.3,0.4,0.5,0.6s0.2,0.5,0.3,0.7s0.2,0.5,0.3,0.8s0.2,0.5,0.3,0.7
					c0,0.1,0,0.1,0,0.2s0,0.1,0,0.2s0,0.1,0.1,0.2s0,0.1,0,0.3c0,0.7-0.3,1.2-0.7,1.7s-0.9,0.8-1.4,1s-1.2,0.5-1.8,0.7
					s-1.2,0.4-1.7,0.6c0,0.1,0,0.1,0.1,0.1s0.1,0,0.1,0.1c0.4,0.2,0.7,0.4,0.9,0.6s0.4,0.3,0.6,0.4s0.4,0.2,0.6,0.2s0.5,0.2,0.9,0.2
					s0.7,0.2,0.9,0.2s0.4,0.1,0.6,0.1s0.4,0.1,0.6,0.1s0.5,0.1,0.8,0.1c0.1,0.1,0.3,0.3,0.4,0.5s0.2,0.4,0.2,0.6s0,0.4,0,0.6
					s-0.1,0.3-0.2,0.4c0,0,0.1,0.1,0.1,0.1s0.1,0,0.2,0c-0.1,0.1-0.2,0.1-0.2,0.2s-0.1,0.2-0.2,0.3s-0.1,0.2-0.2,0.2
					s-0.2,0.1-0.3,0.1c-0.5,0.2-1.1,0.2-1.8,0s-1.7-0.5-2.8-0.9c-0.6-0.2-1-0.4-1.4-0.6s-0.7-0.3-0.9-0.5s-0.5-0.3-0.7-0.5
					S-598.3,1080.2-598.6,1079.9z M-595.3,1071.9c-0.2,0.2-0.4,0.5-0.6,0.7s-0.4,0.4-0.6,0.6s-0.4,0.4-0.5,0.7s-0.3,0.6-0.3,0.9
					c0.5-0.1,1.1-0.2,1.7-0.5s1.2-0.5,1.7-0.7c-0.1-0.5-0.2-0.9-0.5-1.2S-595,1072-595.3,1071.9z"/>
				<path class="st1" d="M-576.8,1071.1c-0.4,0-0.8,0-1.3,0.1s-0.9,0.1-1.3,0.2c-0.3,0-0.6,0.1-0.9,0.1s-0.6,0.1-0.8,0.1
					c-0.1,0.3-0.2,0.6-0.3,0.9s-0.2,0.5-0.4,0.8c-0.1,0.3-0.2,0.5-0.3,0.8s-0.2,0.6-0.3,0.9c-0.2,0.2-0.3,0.5-0.4,0.7
					s-0.2,0.4-0.2,0.7c-0.2,0.2-0.3,0.5-0.4,0.7s-0.2,0.5-0.2,0.7l-0.1,0.3c-0.1,0.1-0.1,0.2-0.2,0.2s-0.1,0.1-0.1,0.2
					c0,0.2-0.1,0.3-0.2,0.5c0,0.1-0.1,0.2-0.1,0.2s0,0.1,0,0.2c0,0.2,0,0.3-0.1,0.3c0,0.1,0,0.2,0,0.2s0,0.2,0,0.2
					c0,0.2-0.1,0.3,0,0.4c0,0.1,0.1,0.1,0.1,0.2s0.1,0.1,0.1,0.2c0.1,0.1,0.2,0.1,0.2,0.1c0.1,0,0.2,0.1,0.3,0.2l0.2,0.2
					c0.1,0.5,0,0.8-0.2,1.1c-0.2,0.3-0.6,0.4-1.2,0.4h-0.3c-0.1-0.1-0.1-0.1-0.1-0.2c-0.1,0-0.2-0.1-0.3-0.1s-0.1-0.1-0.2-0.2
					c-0.2-0.1-0.4-0.2-0.5-0.2l-0.2-0.1c0-0.2,0-0.3,0-0.3c-0.1-0.1-0.2-0.3-0.2-0.5s-0.1-0.3-0.1-0.5c0-0.1-0.1-0.3-0.1-0.4
					s-0.1-0.2-0.2-0.3c0-0.9,0.1-1.7,0.3-2.3s0.4-1.2,0.6-1.8c0.1-0.3,0.2-0.6,0.4-0.9s0.2-0.7,0.3-1l0.2-0.2
					c0.1-0.2,0.2-0.5,0.3-0.6s0.1-0.3,0.2-0.5c0-0.1,0.1-0.2,0.1-0.3s0.1-0.2,0.1-0.3c-0.1,0-0.2,0-0.3,0s-0.2,0-0.2,0
					c-0.1,0-0.2,0-0.3,0s-0.2,0-0.2,0c-0.1,0-0.2,0-0.2,0c-0.2,0.1-0.4,0.1-0.6,0.1h-0.2c0,0-0.1,0-0.1,0s-0.1,0-0.1,0
					c-0.2,0-0.3,0-0.4,0.1c-0.2,0-0.4,0-0.5,0h-0.2c0,0-0.1,0-0.1,0s-0.1,0-0.1,0c-0.1,0-0.2,0-0.4,0s-0.3-0.1-0.4-0.2
					c-0.2-0.2-0.3-0.4-0.4-0.4l-0.2-0.3c0-0.1,0-0.2-0.1-0.3s-0.1-0.2-0.1-0.3c-0.1-0.2-0.1-0.3-0.2-0.5s-0.1-0.4-0.1-0.6
					c0-0.1,0-0.2,0.1-0.3s0.1-0.1,0.1-0.2l0.1-0.4l0.3,0h0.7c0.5,0,1,0,1.5-0.1s1-0.1,1.6-0.1c0.3,0,0.6-0.1,0.9-0.1s0.7-0.1,1-0.1
					c0.1-0.1,0.1-0.3,0.2-0.4l0.2-0.1c0.3,0,0.5,0,0.6,0.1s0.2,0.2,0.3,0.2c0.3,0,0.7-0.1,1-0.1s0.7-0.1,1.1-0.2
					c0.5-0.1,1.1-0.1,1.6-0.2s1.1-0.1,1.6-0.1c0.2,0,0.4,0,0.6,0s0.4,0,0.6,0.1l0.2,0.2c0,0.1,0.1,0.2,0.2,0.3s0.2,0.2,0.3,0.2
					c0.2,0.2,0.4,0.4,0.6,0.6s0.3,0.6,0.2,1c-0.1,0.2-0.2,0.3-0.3,0.3l-0.2,0.3l-0.2,0c-0.1,0-0.2,0-0.3,0s-0.2,0.1-0.2,0.1
					c-0.1,0-0.1,0.1-0.2,0.1s-0.1,0-0.2,0.1c-0.1,0-0.3,0-0.3,0S-576.7,1071.1-576.8,1071.1z"/>
			</g>
			<g id="Group-3" transform="translate(63.000000, 64.000000)">
				<g id="Path-2">
					<path class="st1" d="M-640.9,1069.5c-0.5,0-1-0.2-1.3-0.5c-17.3-15.7-21.7-36.7-21.8-37.6c-0.2-1.1,0.5-2.1,1.6-2.4
						c1.1-0.2,2.1,0.5,2.4,1.6c0,0.2,4.3,20.6,20.6,35.4c0.8,0.7,0.9,2,0.1,2.8C-639.8,1069.3-640.3,1069.5-640.9,1069.5z"/>
				</g>
				<g id="Path-3">
					<path class="st1" d="M-638.4,1072.4c-0.1,0-0.2,0-0.3,0l-12-1.7c-1.1-0.2-1.9-1.2-1.7-2.3c0.2-1.1,1.2-1.9,2.3-1.7l10.1,1.4
						l1.3-9.4c0.2-1.1,1.2-1.9,2.3-1.7c1.1,0.2,1.9,1.2,1.7,2.3l-1.6,11.4C-636.5,1071.7-637.4,1072.4-638.4,1072.4z"/>
				</g>
			</g>
		</g>
	</g>
</g>
</svg>
