<?xml version="1.0" encoding="UTF-8" standalone="no"?>
<svg width="21px" height="22px" viewBox="0 0 21 22" version="1.1" xmlns="http://www.w3.org/2000/svg" xmlns:xlink="http://www.w3.org/1999/xlink">
    <!-- Generator: Sketch 41.2 (35397) - http://www.bohemiancoding.com/sketch -->
    <title>profile</title>
    <desc>Created with Sketch.</desc>
    <defs></defs>
    <g id="Page-1" stroke="none" stroke-width="1" fill="none" fill-rule="evenodd">
        <g id="Incomplete-" transform="translate(-21.000000, -627.000000)" stroke="#FFFFFF" fill="#FFFFFF">
            <g id="profile" transform="translate(22.000000, 628.000000)">
                <g id="Group">
                    <path d="M13.1929633,10.0373913 C14.4750874,9 15.2972028,7.42021739 15.2972028,5.65217391 C15.2972028,2.53565217 12.7482517,0 9.61538462,0 C6.48208042,0 3.93356643,2.53565217 3.93356643,5.65217391 C3.93356643,7.42021739 4.75480769,9 6.03693182,10.0373913 C2.63352273,10.9447826 0,13.0363043 0,15.2173913 L0,18.2608696 C0,19.22 0.784090909,20 1.74825175,20 L17.4825175,20 C18.4462413,20 19.2307692,19.22 19.2307692,18.2608696 L19.2307692,15.2173913 C19.2307692,13.0363043 16.5972465,10.9447826 13.1929633,10.0373913 Z M5.68181818,5.65217391 C5.68181818,3.49434783 7.44624126,1.73913043 9.61538462,1.73913043 C11.7840909,1.73913043 13.548951,3.49434783 13.548951,5.65217391 C13.548951,7.81 11.7840909,9.56521739 9.61538462,9.56521739 C7.44624126,9.56521739 5.68181818,7.81 5.68181818,5.65217391 Z M1.74825175,18.2608696 L1.74825175,15.2173913 C1.74825175,13.6782609 5.12609266,11.3043478 9.61538462,11.3043478 C14.1038024,11.3043478 17.4825175,13.6782609 17.4825175,15.2173913 L17.4833916,18.2608696 L1.74825175,18.2608696 Z" id="Shape"></path>
                </g>
            </g>
        </g>
    </g>
</svg>